<?xml version="1.0"?>
<svg xmlns="http://www.w3.org/2000/svg" width="72" height="72" viewBox="0 0 72 72" fill="none">
<path d="M60.1853 56.0925C63.4165 52.2047 65.6639 47.5959 66.7373 42.6559C67.8106 37.7159 67.6784 32.59 66.3518 27.7119C65.0251 22.8338 62.5431 18.347 59.1157 14.631C55.6883 10.915 51.4163 8.07919 46.6611 6.36341C41.9059 4.64763 36.8074 4.10238 31.7969 4.77378C26.7864 5.44517 22.0113 7.31348 17.8756 10.2206C13.7399 13.1278 10.3652 16.9883 8.03698 21.4755C5.70878 25.9627 4.49558 30.9447 4.50001 36C4.50171 43.3489 7.09144 50.4625 11.8148 56.0925L11.7698 56.1307C11.9273 56.3197 12.1073 56.4817 12.2693 56.6685C12.4718 56.9002 12.69 57.1185 12.8993 57.3435C13.5293 58.0275 14.1773 58.6845 14.8568 59.301C15.0638 59.49 15.2775 59.6655 15.4868 59.8455C16.2068 60.4665 16.947 61.056 17.7143 61.605C17.8133 61.6725 17.9033 61.7602 18.0023 61.83V61.803C23.272 65.5114 29.5585 67.5016 36.0023 67.5016C42.446 67.5016 48.7325 65.5114 54.0023 61.803V61.83C54.1013 61.7602 54.189 61.6725 54.2903 61.605C55.0553 61.0537 55.7978 60.4665 56.5178 59.8455C56.727 59.6655 56.9408 59.4877 57.1478 59.301C57.8273 58.6822 58.4753 58.0275 59.1053 57.3435C59.3145 57.1185 59.5305 56.9002 59.7353 56.6685C59.895 56.4817 60.0773 56.3197 60.2348 56.1285L60.1853 56.0925ZM36 18C38.0025 18 39.9601 18.5938 41.6252 19.7064C43.2902 20.8189 44.588 22.4002 45.3543 24.2503C46.1206 26.1004 46.3211 28.1362 45.9305 30.1003C45.5398 32.0643 44.5755 33.8684 43.1595 35.2845C41.7435 36.7005 39.9394 37.6648 37.9753 38.0554C36.0112 38.4461 33.9754 38.2456 32.1253 37.4793C30.2752 36.7129 28.6939 35.4152 27.5814 33.7501C26.4688 32.0851 25.875 30.1275 25.875 28.125C25.875 25.4397 26.9417 22.8643 28.8406 20.9655C30.7394 19.0667 33.3147 18 36 18V18ZM18.0158 56.0925C18.0548 53.1382 19.2554 50.318 21.3578 48.2421C23.4602 46.1662 26.2954 45.0015 29.25 45H42.75C45.7046 45.0015 48.5398 46.1662 50.6422 48.2421C52.7446 50.318 53.9452 53.1382 53.9843 56.0925C49.0497 60.5392 42.6426 63.0002 36 63.0002C29.3574 63.0002 22.9504 60.5392 18.0158 56.0925V56.0925Z" fill="white"/>
</svg>
