<?xml version="1.0"?>
<svg xmlns="http://www.w3.org/2000/svg" xmlns:xlink="http://www.w3.org/1999/xlink" viewBox="0 0 314.18 103.36">
  <defs>
    <style>.cls-1{fill:none;}.cls-2{clip-path:url(#clip-path);}.cls-3{fill:url(#D&#xE9;grad&#xE9;_sans_nom_2);}.cls-4{clip-path:url(#clip-path-2);}.cls-5{fill:url(#D&#xE9;grad&#xE9;_sans_nom_2-2);}.cls-6{fill:#2500bf;}</style>
    <clipPath id="clip-path">
      <path class="cls-1" d="M35.75,3.06A51.19,51.19,0,0,0,7.35,25.92c-1.91,3.3-1.31,7.56,2.48,8.7,1.9.58,4.35.49,6.7-3.59.63-1.07,1.32-2.11,2-3.11A40.74,40.74,0,0,1,35.75,14.25V26A28,28,0,0,0,33,27.92,30.34,30.34,0,0,0,24.48,38.4a30.08,30.08,0,0,0,0,26.56A30.28,30.28,0,0,0,33,75.45a32,32,0,0,0,2.72,1.88V89.11A40.72,40.72,0,0,1,18.57,75.45c-.72-1-1.41-2-2-3.11-2.35-4.08-4.8-4.17-6.7-3.59-3.79,1.14-4.39,5.4-2.48,8.7a51.23,51.23,0,0,0,28.4,22.86,50.56,50.56,0,0,0,10.48,2.2V81.31a30.33,30.33,0,0,0,5.25.45,30,30,0,0,0,18.44-6.31H84.38A40.58,40.58,0,0,1,60.76,91.2a5.26,5.26,0,0,0,2.41,10.23A51.11,51.11,0,0,0,100.83,65h-35a19.57,19.57,0,1,1,0-26.56h35A51.16,51.16,0,0,0,63.17,1.93a5.26,5.26,0,0,0-2.41,10.23A40.59,40.59,0,0,1,84.38,27.92H69.92A29.94,29.94,0,0,0,51.48,21.6a30.33,30.33,0,0,0-5.25.46V.85A50.58,50.58,0,0,0,35.75,3.06"/>
    </clipPath>
    <radialGradient id="D&#xE9;grad&#xE9;_sans_nom_2" cx="-525.52" cy="435.68" r="1" gradientTransform="matrix(0, -110.65, -110.65, 0, 48253.68, -58036)" gradientUnits="userSpaceOnUse">
      <stop offset="0" stop-color="#3100ff"/>
      <stop offset="1" stop-color="#ff1a71"/>
    </radialGradient>
    <clipPath id="clip-path-2">
      <path class="cls-1" d="M1,50a5.73,5.73,0,1,0,5.5-4.08A5.75,5.75,0,0,0,1,50"/>
    </clipPath>
    <radialGradient id="D&#xE9;grad&#xE9;_sans_nom_2-2" cx="-525.52" cy="435.68" gradientTransform="matrix(0, -110.65, -110.65, 0, 48207.9, -57988.99)" xlink:href="#D&#xE9;grad&#xE9;_sans_nom_2"/>
  </defs>
  <title>Fichier 1</title>
  <g id="Calque_2">
    <g id="Calque_1-2">
      <g class="cls-2">
        <rect class="cls-3" x="1.88" y="3.53" width="102.51" height="96.29" transform="translate(0.98 104.35) rotate(-89.49)"/>
      </g>
      <g class="cls-4">
        <rect class="cls-5" x="0.39" y="45.55" width="12.26" height="12.93" transform="matrix(0.01, -1, 1, 0.01, -45.55, 58.07)"/>
      </g>
      <path class="cls-6" d="M112.51,47.78H60.17a9.29,9.29,0,1,0,0,7.8h52.34c-.11-1.28-.18-2.58-.18-3.9s.07-2.61.18-3.9"/>
      <path class="cls-6" d="M152.9,72.92a25.38,25.38,0,0,0,18-7.2L174.5,70a30.28,30.28,0,0,1-9.94,6,34.24,34.24,0,0,1-12.38,2.23A39.91,39.91,0,0,1,140,76.59a25.44,25.44,0,0,1-9.29-5.11,22.5,22.5,0,0,1-5.94-8.35,29.2,29.2,0,0,1-2.09-11.45,29.8,29.8,0,0,1,2-11.45,22.67,22.67,0,0,1,5.83-8.35,25.11,25.11,0,0,1,9.11-5.11A38.19,38.19,0,0,1,151.46,25a34.46,34.46,0,0,1,12.38,2.23,30.45,30.45,0,0,1,9.94,6.05l-3.6,4.32a26.4,26.4,0,0,0-8.6-5.51,26.69,26.69,0,0,0-9.4-1.69,20.65,20.65,0,0,0-7.27,1.26,15.25,15.25,0,0,0-5.83,3.85,18.27,18.27,0,0,0-3.86,6.59,29.08,29.08,0,0,0-1.4,9.54,29,29,0,0,0,1.4,9.54,17.54,17.54,0,0,0,4,6.59,16,16,0,0,0,6,3.85,22.48,22.48,0,0,0,7.67,1.26"/>
      <rect class="cls-6" x="180.98" y="26.48" width="10.08" height="50.4"/>
      <path class="cls-6" d="M211.94,30.44a5.41,5.41,0,0,1-1.48,3.78,5.56,5.56,0,0,1-7.85,0,5.6,5.6,0,0,1,0-7.56,5.53,5.53,0,0,1,7.82,0,5.4,5.4,0,0,1,1.51,3.78m-.36,46.44H201.5V40.16h10.08Z"/>
      <path class="cls-6" d="M250.46,44.48h-8.64c-3.27,0-5.76.88-7.49,2.63s-2.59,4.36-2.59,7.81v22H221.66v-22q0-7.34,4.64-11.41t13.36-4.07h10.8Z"/>
      <path class="cls-6" d="M267,30.44a5.41,5.41,0,0,1-1.48,3.78,5.56,5.56,0,0,1-7.85,0,5.59,5.59,0,0,1,0-7.56,5.53,5.53,0,0,1,7.82,0A5.4,5.4,0,0,1,267,30.44m-.36,46.44H256.58V40.16h10.08Z"/>
      <path class="cls-6" d="M285.74,47.36a4.09,4.09,0,0,0,1.47,3,12.68,12.68,0,0,0,5,2.37L303.38,56a19.84,19.84,0,0,1,8,4.11,8.69,8.69,0,0,1,2.81,6.69,10.28,10.28,0,0,1-1.08,4.72,9.26,9.26,0,0,1-3.53,3.63,19.85,19.85,0,0,1-6.34,2.34,46.24,46.24,0,0,1-9.57.83,38.35,38.35,0,0,1-5.8-.43,40.23,40.23,0,0,1-5.4-1.19A32.85,32.85,0,0,1,277.82,75a21.78,21.78,0,0,1-3.6-2l2.88-4.32a35.39,35.39,0,0,0,7.09,3.28,29.19,29.19,0,0,0,9.47,1.4q5.4,0,7.56-1.44a4.23,4.23,0,0,0,2.16-3.6,4,4,0,0,0-1.51-3,14.42,14.42,0,0,0-5.33-2.41L285.38,59.6a19.89,19.89,0,0,1-7.53-3.92,8.69,8.69,0,0,1-2.91-6.88,9.12,9.12,0,0,1,1-4.28,9.27,9.27,0,0,1,3.28-3.42A18.3,18.3,0,0,1,285,38.83,36.37,36.37,0,0,1,293.3,38a34.11,34.11,0,0,1,10.83,1.62A29.92,29.92,0,0,1,312,43.4l-2.88,4.32a35.68,35.68,0,0,0-6.7-3.27A26,26,0,0,0,293.3,43a10.5,10.5,0,0,0-5.69,1.23,3.59,3.59,0,0,0-1.87,3.09"/>
    </g>
  </g>
</svg>
